<svg id="图层_2" data-name="图层 2" xmlns="http://www.w3.org/2000/svg" xmlns:xlink="http://www.w3.org/1999/xlink" width="400" height="400" viewBox="0 0 400 400">
  <defs>
    <style>
      .cls-1, .cls-2 {
        fill: none;
      }

      .cls-2 {
        clip-rule: evenodd;
      }

      .cls-3 {
        fill: #edeff2;
        stroke: url(#未命名的渐变_716);
      }

      .cls-3, .cls-4, .cls-5 {
        stroke-miterlimit: 10;
        stroke-width: 2px;
      }

      .cls-4, .cls-5 {
        fill: #e8ebf0;
      }

      .cls-4 {
        stroke: url(#未命名的渐变_716-2);
      }

      .cls-5 {
        stroke: url(#未命名的渐变_716-3);
      }

      .cls-6 {
        clip-path: url(#clip-path);
      }

      .cls-7 {
        clip-path: url(#clip-path-2);
      }

      .cls-8 {
        clip-path: url(#clip-path-3);
      }

      .cls-9 {
        clip-path: url(#clip-path-4);
      }

      .cls-10 {
        clip-path: url(#clip-path-5);
      }

      .cls-11 {
        clip-path: url(#clip-path-6);
      }
    </style>
    <linearGradient id="未命名的渐变_716" data-name="未命名的渐变 716" x1="54.03" y1="206.1" x2="345.96" y2="206.1" gradientUnits="userSpaceOnUse">
      <stop offset="0" stop-color="#adb9c2"/>
      <stop offset="1" stop-color="#c0cdd6"/>
    </linearGradient>
    <linearGradient id="未命名的渐变_716-2" x1="55.04" y1="252.01" x2="344.92" y2="252.01" xlink:href="#未命名的渐变_716"/>
    <linearGradient id="未命名的渐变_716-3" x1="217.01" y1="156.23" x2="269.76" y2="156.23" xlink:href="#未命名的渐变_716"/>
    <clipPath id="clip-path">
      <path class="cls-1" d="M-1160-196.7a126,126,0,0,0-126,126,126,126,0,0,0,126,126,126,126,0,0,0,126-126A126,126,0,0,0-1160-196.7Zm0-27a153,153,0,0,1,153,153,153,153,0,0,1-153,153,153,153,0,0,1-153-153A153,153,0,0,1-1160-223.7Z"/>
    </clipPath>
    <clipPath id="clip-path-2">
      <path class="cls-2" d="M-1066.3,26.7a13.5,13.5,0,0,1,19.1-1l53.5,48.1a13.7,13.7,0,0,1,1,19.1,13.6,13.6,0,0,1-19.1,1l-53.5-48.2A13.5,13.5,0,0,1-1066.3,26.7Z"/>
    </clipPath>
    <clipPath id="clip-path-3">
      <path class="cls-1" d="M-1142-133.7c-10.8,0-19.3,8.3-19.3,18.2s8.5,18.1,19.3,18.1,19.3-8.3,19.3-18.1S-1131.2-133.7-1142-133.7Zm0-27c25.6,0,46.3,20.2,46.3,45.2s-20.7,45.1-46.3,45.1-46.3-20.2-46.3-45.1S-1167.6-160.7-1142-160.7Z"/>
    </clipPath>
    <clipPath id="clip-path-4">
      <path class="cls-1" d="M-1142-91.4c47.1,0,85.5,37.4,85.5,83.7A13.6,13.6,0,0,1-1070,5.8a13.5,13.5,0,0,1-13.5-13.5c0-31.3-26.1-56.7-58.5-56.7s-58.5,25.4-58.5,56.7A13.5,13.5,0,0,1-1214,5.8a13.6,13.6,0,0,1-13.5-13.5C-1227.5-54-1189.1-91.4-1142-91.4Z"/>
    </clipPath>
    <clipPath id="clip-path-5">
      <path class="cls-1" d="M-1196-165.2a13.5,13.5,0,0,1,13.5,13.5,13.4,13.4,0,0,1-12.2,13.4h-1.3c-9.7,0-18,8.9-18,20.4s7.6,19.7,16.8,20.4h1.2a13.5,13.5,0,0,1,13.5,13.5A13.4,13.4,0,0,1-1196-70.4c-25.1,0-45-21.4-45-47.4S-1221.1-165.2-1196-165.2Z"/>
    </clipPath>
    <clipPath id="clip-path-6">
      <path class="cls-1" d="M-1196-97.4a13.5,13.5,0,0,1,13.5,13.5A13.4,13.4,0,0,1-1196-70.4c-22.1,0-40.5,19.8-40.5,44.7A13.5,13.5,0,0,1-1250-12.2a13.6,13.6,0,0,1-13.5-13.5C-1263.5-65.1-1233.5-97.4-1196-97.4Z"/>
    </clipPath>
  </defs>
  <title>缺省页插画</title>
  <g>
    <rect class="cls-3" x="55" y="103.8" width="289.9" height="204.55" rx="10.9"/>
    <path class="cls-4" d="M56,272.6c25.4-32.5,62.8-75.9,87.3-75.9,36.2,0,66.5,67.6,86.3,67.6,16.9,0,34.5-32,59.2-32,17.1,0,36.5,28,55.1,45.5v19.8a9.7,9.7,0,0,1-9.7,9.8H65.8a9.8,9.8,0,0,1-9.8-9.8Z"/>
    <circle class="cls-5" cx="243.4" cy="156.2" r="25.4"/>
  </g>
  <rect class="cls-1" width="400" height="400"/>
</svg>
