<?xml version="1.0" encoding="utf-8"?>
<!-- Generator: Adobe Illustrator 24.0.0, SVG Export Plug-In . SVG Version: 6.00 Build 0)  -->
<svg version="1.1" id="图层_1" xmlns="http://www.w3.org/2000/svg" xmlns:xlink="http://www.w3.org/1999/xlink" x="0px" y="0px"
	 viewBox="0 0 400 400" style="enable-background:new 0 0 400 400;" xml:space="preserve">
<style type="text/css">
	.st0{display:none;}
	.st1{display:inline;fill:#1B223D;}
	.st2{display:inline;fill:#FFFFFF;}
	.st3{font-family:'SourceHanSansSC-Light-GBpc-EUC-H';}
	.st4{font-size:29.96px;}
	.st5{opacity:0.43;}
	.st6{fill:url(#SVGID_1_);}
	.st7{fill:url(#SVGID_2_);}
	.st8{fill:url(#SVGID_3_);}
	.st9{fill:url(#SVGID_4_);}
	.st10{fill:url(#SVGID_5_);}
	.st11{fill:url(#SVGID_6_);}
	.st12{fill:url(#SVGID_7_);}
	.st13{enable-background:new    ;}
	.st14{fill:#252F4D;stroke:#30B9F3;stroke-width:2;stroke-linecap:round;stroke-linejoin:round;stroke-miterlimit:10;}
	.st15{fill:#2D3956;stroke:url(#SVGID_8_);stroke-width:2;stroke-linecap:round;stroke-linejoin:round;stroke-miterlimit:10;}
	.st16{fill:url(#SVGID_9_);}
	.st17{fill:url(#SVGID_10_);}
	.st18{fill:url(#SVGID_11_);}
	.st19{fill:#2D3956;stroke:url(#SVGID_12_);stroke-width:2;stroke-linecap:round;stroke-linejoin:round;stroke-miterlimit:10;}
	.st20{opacity:0.53;clip-path:url(#SVGID_14_);}
	.st21{fill:url(#SVGID_15_);}
	.st22{clip-path:url(#SVGID_17_);}
	.st23{fill:url(#SVGID_18_);}
	.st24{fill:url(#SVGID_19_);}
	
		.st25{fill:url(#SVGID_20_);stroke:url(#SVGID_21_);stroke-width:1.5;stroke-linecap:round;stroke-linejoin:round;stroke-miterlimit:10;}
	.st26{fill:url(#SVGID_22_);}
	
		.st27{fill:url(#SVGID_23_);stroke:url(#SVGID_24_);stroke-width:1.5;stroke-linecap:round;stroke-linejoin:round;stroke-miterlimit:10;}
	
		.st28{fill:url(#SVGID_25_);stroke:url(#SVGID_26_);stroke-width:1.5;stroke-linecap:round;stroke-linejoin:round;stroke-miterlimit:10;}
	.st29{fill:url(#SVGID_27_);}
	.st30{fill:url(#SVGID_28_);}
	.st31{fill:url(#SVGID_29_);}
	.st32{fill:url(#SVGID_30_);}
	.st33{fill:url(#SVGID_31_);}
	.st34{fill:url(#SVGID_32_);}
	.st35{fill:url(#SVGID_33_);}
	.st36{fill:url(#SVGID_34_);}
	.st37{fill:url(#SVGID_35_);}
	.st38{fill:url(#SVGID_36_);}
	.st39{fill:url(#SVGID_37_);}
	.st40{opacity:0.22;fill:#FDFEFF;enable-background:new    ;}
	.st41{fill:url(#SVGID_38_);}
	.st42{fill:url(#SVGID_39_);}
	.st43{fill:url(#SVGID_40_);}
	
		.st44{fill:url(#SVGID_41_);stroke:url(#SVGID_42_);stroke-width:1.5;stroke-linecap:round;stroke-linejoin:round;stroke-miterlimit:10;}
	
		.st45{fill:url(#SVGID_43_);stroke:url(#SVGID_44_);stroke-width:1.5;stroke-linecap:round;stroke-linejoin:round;stroke-miterlimit:10;}
	.st46{fill:url(#SVGID_45_);}
	.st47{fill:url(#SVGID_46_);}
	.st48{fill:url(#SVGID_47_);}
	.st49{fill:url(#SVGID_48_);}
	.st50{fill:none;stroke:url(#SVGID_49_);stroke-width:2;stroke-linecap:round;stroke-linejoin:round;stroke-miterlimit:10;}
	.st51{fill:none;stroke:url(#SVGID_50_);stroke-width:2;stroke-linecap:round;stroke-linejoin:round;stroke-miterlimit:10;}
	.st52{fill:none;stroke:url(#SVGID_51_);stroke-width:2;stroke-linecap:round;stroke-linejoin:round;stroke-miterlimit:10;}
	.st53{fill:none;stroke:url(#SVGID_52_);stroke-width:2;stroke-linecap:round;stroke-linejoin:round;stroke-miterlimit:10;}
	.st54{fill:none;stroke:url(#SVGID_53_);stroke-width:2;stroke-linecap:round;stroke-linejoin:round;stroke-miterlimit:10;}
	.st55{fill:none;stroke:url(#SVGID_54_);stroke-width:2;stroke-linecap:round;stroke-linejoin:round;stroke-miterlimit:10;}
	.st56{fill:none;}
	.st57{fill:url(#SVGID_55_);}
	.st58{fill:url(#SVGID_56_);}
	.st59{fill:url(#SVGID_57_);}
	.st60{fill:url(#SVGID_58_);}
	.st61{fill:url(#SVGID_59_);}
	.st62{fill:url(#SVGID_60_);}
	.st63{fill:url(#SVGID_61_);}
	.st64{fill:url(#SVGID_62_);}
	.st65{fill:url(#SVGID_63_);}
	.st66{fill:url(#SVGID_64_);}
	.st67{fill:url(#SVGID_65_);}
	.st68{fill:url(#SVGID_66_);}
	.st69{fill:url(#SVGID_67_);}
	.st70{fill:url(#SVGID_68_);}
	.st71{fill:none;stroke:#30B9F3;stroke-width:2;stroke-linecap:round;stroke-linejoin:round;stroke-miterlimit:10;}
</style>
<g id="图层_10">
</g>
<g id="图层_4" class="st0">
</g>
<g id="图层_1_1_" class="st0">
	<rect x="-2.5" y="-2.5" class="st1" width="405" height="405"/>
	<text transform="matrix(1 0 0 1 7.934570e-04 -28.554)" class="st2 st3 st4">空状态</text>
</g>
<g id="图层_2_1_">
	<g>
		<g>
			<g class="st5">
				<g>
					
						<linearGradient id="SVGID_1_" gradientUnits="userSpaceOnUse" x1="210.4332" y1="388.0024" x2="232.4872" y2="388.0024" gradientTransform="matrix(1 0 0 1 0 -318)">
						<stop  offset="0" style="stop-color:#515D7B"/>
						<stop  offset="0.2893" style="stop-color:#5C6887;stop-opacity:0.713"/>
						<stop  offset="0.8073" style="stop-color:#7986A6;stop-opacity:0.1991"/>
						<stop  offset="0.97" style="stop-color:#8491B1;stop-opacity:3.770000e-02"/>
						<stop  offset="1" style="stop-color:#8693B3;stop-opacity:0"/>
					</linearGradient>
					<path class="st6" d="M229.1,57.3c-5.4,8.4-12.3,15.7-20.1,21.8c-1.3,1-1.1,3.2,0,4.2c1.3,1.3,3,1,4.2,0
						c8.3-6.4,15.4-14.3,21.1-23c0.9-1.4,0.3-3.3-1.1-4.1C231.7,55.4,229.9,56,229.1,57.3L229.1,57.3z"/>
				</g>
			</g>
			<g class="st5">
				<g>
					
						<linearGradient id="SVGID_2_" gradientUnits="userSpaceOnUse" x1="70.1198" y1="421.3922" x2="92.1738" y2="421.3922" gradientTransform="matrix(1 0 0 1 0 -318)">
						<stop  offset="0" style="stop-color:#515D7B"/>
						<stop  offset="0.2893" style="stop-color:#5C6887;stop-opacity:0.713"/>
						<stop  offset="0.8073" style="stop-color:#7986A6;stop-opacity:0.1991"/>
						<stop  offset="0.97" style="stop-color:#8491B1;stop-opacity:3.770000e-02"/>
						<stop  offset="1" style="stop-color:#8693B3;stop-opacity:0"/>
					</linearGradient>
					<path class="st7" d="M88.7,90.7c-5.4,8.3-12.3,15.7-20.1,21.8c-1.3,1-1.1,3.2,0,4.2c1.3,1.3,3,1,4.2,0
						c8.3-6.4,15.4-14.3,21.1-23c0.9-1.4,0.3-3.3-1.1-4.1C91.4,88.8,89.6,89.3,88.7,90.7L88.7,90.7z"/>
				</g>
			</g>
			<g class="st5">
				<g>
					
						<linearGradient id="SVGID_3_" gradientUnits="userSpaceOnUse" x1="293.9695" y1="450.911" x2="337.058" y2="450.911" gradientTransform="matrix(1 0 0 1 0 -318)">
						<stop  offset="0" style="stop-color:#515D7B"/>
						<stop  offset="0.2893" style="stop-color:#5C6887;stop-opacity:0.713"/>
						<stop  offset="0.8073" style="stop-color:#7986A6;stop-opacity:0.1991"/>
						<stop  offset="0.97" style="stop-color:#8491B1;stop-opacity:3.770000e-02"/>
						<stop  offset="1" style="stop-color:#8693B3;stop-opacity:0"/>
					</linearGradient>
					<path class="st8" d="M333.6,106.8c-7.3,15.9-17.6,31.3-31.4,42.2c-1.2,0.9-3,2.2-4.5,3.2s-3.1,1.9-4.7,2.7
						c-1.5,0.7-1.9,2.8-1.1,4.1c0.9,1.5,2.6,1.8,4.1,1.1c6.7-3.3,12.7-8.3,17.9-13.6c6.4-6.5,12-13.9,16.9-21.7c3-4.8,5.7-9.8,8-15
						c0.7-1.5,0.4-3.2-1.1-4.1C336.4,105,334.2,105.4,333.6,106.8L333.6,106.8z"/>
				</g>
			</g>
			<g class="st5">
				<g>
					
						<linearGradient id="SVGID_4_" gradientUnits="userSpaceOnUse" x1="30.9557" y1="547.2878" x2="80.3628" y2="547.2878" gradientTransform="matrix(1 0 0 1 0 -318)">
						<stop  offset="0" style="stop-color:#515D7B"/>
						<stop  offset="0.2893" style="stop-color:#5C6887;stop-opacity:0.713"/>
						<stop  offset="0.8073" style="stop-color:#7986A6;stop-opacity:0.1991"/>
						<stop  offset="0.97" style="stop-color:#8491B1;stop-opacity:3.770000e-02"/>
						<stop  offset="1" style="stop-color:#8693B3;stop-opacity:0"/>
					</linearGradient>
					<path class="st9" d="M77,205.8c-9.7,13.3-21.6,25.2-35,34.9c-3.9,2.8-7.9,5.4-12,7.9c-3.3,2-0.3,7.2,3,5.2
						c14.8-8.9,28.3-20.1,39.7-33.1c3.3-3.8,6.5-7.8,9.4-11.8c1-1.3,0.2-3.4-1.1-4.1C79.6,203.8,77.9,204.5,77,205.8L77,205.8z"/>
				</g>
			</g>
			<g class="st5">
				<g>
					
						<linearGradient id="SVGID_5_" gradientUnits="userSpaceOnUse" x1="74.3415" y1="591.9" x2="87.7258" y2="591.9" gradientTransform="matrix(1 0 0 1 0 -318)">
						<stop  offset="0" style="stop-color:#515D7B"/>
						<stop  offset="0.2893" style="stop-color:#5C6887;stop-opacity:0.713"/>
						<stop  offset="0.8073" style="stop-color:#7986A6;stop-opacity:0.1991"/>
						<stop  offset="0.97" style="stop-color:#8491B1;stop-opacity:3.770000e-02"/>
						<stop  offset="1" style="stop-color:#8693B3;stop-opacity:0"/>
					</linearGradient>
					<path class="st10" d="M85,267c-4.1,3.2-8.1,6.4-12.1,9.6c-0.6,0.5-0.9,1.4-0.9,2.1s0.3,1.6,0.9,2.1s1.3,0.9,2.1,0.9
						c0.8,0,1.5-0.4,2.1-0.9c4.1-3.2,8.1-6.4,12.1-9.6c0.6-0.5,0.9-1.4,0.9-2.1s-0.3-1.6-0.9-2.1s-1.3-0.9-2.1-0.9
						S85.6,266.5,85,267L85,267z"/>
				</g>
			</g>
		</g>
		
			<linearGradient id="SVGID_6_" gradientUnits="userSpaceOnUse" x1="171.7939" y1="665.8181" x2="140.3134" y2="711.4871" gradientTransform="matrix(1 0 0 1 0 -318)">
			<stop  offset="0" style="stop-color:#0E1A31"/>
			<stop  offset="0.7443" style="stop-color:#14243D;stop-opacity:0.2557"/>
			<stop  offset="1" style="stop-color:#172842;stop-opacity:0"/>
		</linearGradient>
		<polygon class="st11" points="97.1,319.4 70.7,328.2 178.9,395.3 306,319.4 		"/>
		
			<linearGradient id="SVGID_7_" gradientUnits="userSpaceOnUse" x1="200" y1="608.9107" x2="200" y2="654.8447" gradientTransform="matrix(1 0 0 1 0 -318)">
			<stop  offset="0" style="stop-color:#5375B0"/>
			<stop  offset="0.112" style="stop-color:#4C6BA2;stop-opacity:0.888"/>
			<stop  offset="0.513" style="stop-color:#374B74;stop-opacity:0.487"/>
			<stop  offset="0.8221" style="stop-color:#2A3658;stop-opacity:0.1779"/>
			<stop  offset="1" style="stop-color:#252F4D;stop-opacity:0"/>
		</linearGradient>
		<path class="st12" d="M0,333.5c64.1-28.7,131.1-44,200-44s135.9,15.2,200,44"/>
		<g class="st13">
			<g>
				<polygon class="st14" points="306.3,212.1 202.2,272.6 97.4,212.1 201.5,151.6 				"/>
			</g>
			<g>
				<polygon class="st14" points="202.2,272.6 201.9,379.9 97.1,319.4 97.4,212.1 				"/>
			</g>
			<g>
				
					<linearGradient id="SVGID_8_" gradientUnits="userSpaceOnUse" x1="254.1" y1="529.1" x2="254.1" y2="698.9" gradientTransform="matrix(1 0 0 1 0 -318)">
					<stop  offset="0" style="stop-color:#48CDF3"/>
					<stop  offset="0.4692" style="stop-color:#3BC2F3"/>
					<stop  offset="1" style="stop-color:#30B9F3"/>
				</linearGradient>
				<polygon class="st15" points="306.3,212.1 306,319.4 201.9,379.9 202.2,272.6 				"/>
			</g>
			
				<linearGradient id="SVGID_9_" gradientUnits="userSpaceOnUse" x1="100.1" y1="530.1" x2="201.7" y2="530.1" gradientTransform="matrix(1 0 0 1 0 -318)">
				<stop  offset="0" style="stop-color:#273353"/>
				<stop  offset="1" style="stop-color:#252F4D"/>
			</linearGradient>
			<polygon class="st16" points="201.3,153 201.7,271.2 100.1,212.1 			"/>
			<g>
				
					<radialGradient id="SVGID_10_" cx="-1453.0173" cy="26.7842" r="55.3439" gradientTransform="matrix(0.4617 -7.680071e-03 -6.606558e-04 -0.4831 918.8758 205.5802)" gradientUnits="userSpaceOnUse">
					<stop  offset="1.278862e-03" style="stop-color:#08182B"/>
					<stop  offset="0.3029" style="stop-color:#0D1C31;stop-opacity:0.698"/>
					<stop  offset="0.7151" style="stop-color:#1A2843;stop-opacity:0.2853"/>
					<stop  offset="1" style="stop-color:#273353;stop-opacity:0"/>
				</radialGradient>
				<path class="st17" d="M226.8,187.7c11.1-8.5,29.6-8.1,41.3,0.8c11.7,8.9,12.2,23,1.1,31.4c-11.1,8.5-29.6,8.1-41.3-0.8
					C216.2,210.2,215.7,196.2,226.8,187.7z"/>
			</g>
			<g>
				
					<radialGradient id="SVGID_11_" cx="-1469.6947" cy="8.5817" r="55.3439" gradientTransform="matrix(0.4617 -7.680071e-03 -6.606558e-04 -0.4831 918.8637 225.8584)" gradientUnits="userSpaceOnUse">
					<stop  offset="1.278862e-03" style="stop-color:#08182B"/>
					<stop  offset="0.3029" style="stop-color:#0D1C31;stop-opacity:0.698"/>
					<stop  offset="0.7151" style="stop-color:#1A2843;stop-opacity:0.2853"/>
					<stop  offset="1" style="stop-color:#273353;stop-opacity:0"/>
				</radialGradient>
				<path class="st18" d="M219.1,216.9c11.1-8.5,29.6-8.1,41.3,0.8c11.7,8.9,12.2,23,1.1,31.4c-11.1,8.5-29.6,8.1-41.3-0.8
					S208,225.3,219.1,216.9z"/>
			</g>
		</g>
		<polygon class="st14" points="185.2,301.6 81,241.1 97.4,212.1 201.7,272.6 		"/>
		
			<linearGradient id="SVGID_12_" gradientUnits="userSpaceOnUse" x1="10037.5557" y1="574.85" x2="10121.3389" y2="574.85" gradientTransform="matrix(-1 0 0 1 10322.5596 -318)">
			<stop  offset="0" style="stop-color:#48CDF3"/>
			<stop  offset="0.4692" style="stop-color:#3BC2F3"/>
			<stop  offset="1" style="stop-color:#30B9F3"/>
		</linearGradient>
		<polygon class="st19" points="218.7,301.6 323,241.1 306.5,212.1 202.2,272.6 		"/>
		<g>
			<g>
				<g>
					<defs>
						<polygon id="SVGID_13_" points="306.3,212.1 202.2,272.6 97.4,212.1 130.2,58.8 281.9,58.8 						"/>
					</defs>
					<clipPath id="SVGID_14_">
						<use xlink:href="#SVGID_13_"  style="overflow:visible;"/>
					</clipPath>
					<g class="st20">
						
							<radialGradient id="SVGID_15_" cx="-1453.17" cy="1427.413" r="64.1937" gradientTransform="matrix(0.7923 0.1041 0.1041 0.9478 1194.5977 -916.9865)" gradientUnits="userSpaceOnUse">
							<stop  offset="0" style="stop-color:#515D7B"/>
							<stop  offset="0.2893" style="stop-color:#5C6887;stop-opacity:0.713"/>
							<stop  offset="0.8073" style="stop-color:#7986A6;stop-opacity:0.1991"/>
							<stop  offset="0.97" style="stop-color:#8491B1;stop-opacity:3.770000e-02"/>
							<stop  offset="1" style="stop-color:#8693B3;stop-opacity:0"/>
						</radialGradient>
						<path class="st21" d="M134.3,197.1c10.2-20,37.3-33,60.7-29.1s59,45.2,48.8,65.2s-36.9,55.6-60.2,51.7
							C160.4,280.9,124.2,217.1,134.3,197.1z"/>
					</g>
				</g>
			</g>
			<g>
				<g>
					<defs>
						<polygon id="SVGID_16_" points="306.3,212.1 202.2,272.6 97.4,212.1 130.2,58.8 281.9,58.8 						"/>
					</defs>
					<clipPath id="SVGID_17_">
						<use xlink:href="#SVGID_16_"  style="overflow:visible;"/>
					</clipPath>
					<g class="st22">
						<g>
							
								<linearGradient id="SVGID_18_" gradientUnits="userSpaceOnUse" x1="-2111.4993" y1="3285.0042" x2="-2095.2175" y2="3275.6038" gradientTransform="matrix(-3.580000e-02 0.9994 0.9994 3.580000e-02 -3113.1133 2209.9727)">
								<stop  offset="0" style="stop-color:#86E3F8"/>
								<stop  offset="0.2972" style="stop-color:#55B7DD"/>
								<stop  offset="0.6144" style="stop-color:#278FC3"/>
								<stop  offset="0.8592" style="stop-color:#0B75B3"/>
								<stop  offset="1" style="stop-color:#006CAD"/>
							</linearGradient>
							<path class="st23" d="M234.2,211.1c4.2,0.1,17.7,13.2,19.6,18.5c2.3,6.6-4.6,11.4-9.2,9.4c-4.8-2.1-16-16.5-16.4-21.4
								C227.7,212.6,230,210.9,234.2,211.1z"/>
						</g>
						
							<linearGradient id="SVGID_19_" gradientUnits="userSpaceOnUse" x1="48.6015" y1="144.9318" x2="59.9221" y2="144.9318" gradientTransform="matrix(0.9952 -9.810000e-02 9.810000e-02 0.9952 182.571 95.4879)">
							<stop  offset="0" style="stop-color:#112B60"/>
							<stop  offset="0.2002" style="stop-color:#133165"/>
							<stop  offset="0.4598" style="stop-color:#1A4174"/>
							<stop  offset="0.7507" style="stop-color:#255B8B"/>
							<stop  offset="0.999" style="stop-color:#3078A5"/>
						</linearGradient>
						<circle class="st24" cx="250.8" cy="234.4" r="5.7"/>
						
							<linearGradient id="SVGID_20_" gradientUnits="userSpaceOnUse" x1="3918.0691" y1="2851.1365" x2="3934.7078" y2="2834.4978" gradientTransform="matrix(-0.4456 0.8952 -0.8952 -0.4456 4473.2109 -1941.1116)">
							<stop  offset="0" style="stop-color:#141A2B"/>
							<stop  offset="0.5939" style="stop-color:#202842"/>
							<stop  offset="1" style="stop-color:#252F4D"/>
						</linearGradient>
						
							<linearGradient id="SVGID_21_" gradientUnits="userSpaceOnUse" x1="6851.9785" y1="4008.4578" x2="6879.2808" y2="4008.4578" gradientTransform="matrix(2.930000e-02 0.9996 -0.9996 2.930000e-02 3985.2561 -6672.3228)">
							<stop  offset="0" style="stop-color:#8490B0"/>
							<stop  offset="0.3497" style="stop-color:#727E9E"/>
							<stop  offset="0.8051" style="stop-color:#5F6B8A"/>
							<stop  offset="1" style="stop-color:#54607F"/>
						</linearGradient>
						<path class="st25" d="M186.8,311.4c0,0-7.6,9.8-11.9,9.3s-4.7-2.6-4.9-3.9c-0.3-2,1.1-9.7,2.5-14.9c1.7-6.2,6.6-8.1,9.8-6.6
							C191.9,299.6,189.7,305.6,186.8,311.4z"/>
						
							<linearGradient id="SVGID_22_" gradientUnits="userSpaceOnUse" x1="2937.7505" y1="5488.7358" x2="2950.8367" y2="5488.7358" gradientTransform="matrix(-6.320000e-02 0.998 -0.998 -6.320000e-02 5880.0278 -2286.3577)">
							<stop  offset="0" style="stop-color:#112B60"/>
							<stop  offset="0.2002" style="stop-color:#133165"/>
							<stop  offset="0.4598" style="stop-color:#1A4174"/>
							<stop  offset="0.7507" style="stop-color:#255B8B"/>
							<stop  offset="0.999" style="stop-color:#3078A5"/>
						</linearGradient>
						<path class="st26" d="M215.8,311.5c-3.5-0.2-6.1-3.3-5.9-6.9s3.2-6.4,6.7-6.1s6.1,3.3,5.9,6.9
							C222.3,308.9,219.3,311.7,215.8,311.5z"/>
						
							<linearGradient id="SVGID_23_" gradientUnits="userSpaceOnUse" x1="2935.3696" y1="5510.959" x2="2953.217" y2="5510.959" gradientTransform="matrix(-6.320000e-02 0.998 -0.998 -6.320000e-02 5880.0278 -2286.3577)">
							<stop  offset="0" style="stop-color:#2F3D63"/>
							<stop  offset="0.4322" style="stop-color:#2A3658"/>
							<stop  offset="1" style="stop-color:#252F4D"/>
						</linearGradient>
						
							<linearGradient id="SVGID_24_" gradientUnits="userSpaceOnUse" x1="6851.4434" y1="3993.6196" x2="6871.1611" y2="3993.6196" gradientTransform="matrix(2.930000e-02 0.9996 -0.9996 2.930000e-02 3985.2561 -6672.3228)">
							<stop  offset="0" style="stop-color:#8490B0"/>
							<stop  offset="0.3497" style="stop-color:#727E9E"/>
							<stop  offset="0.8051" style="stop-color:#5F6B8A"/>
							<stop  offset="1" style="stop-color:#54607F"/>
						</linearGradient>
						<path class="st27" d="M216.6,298.6c0,0-4.8,2.3-5.3,6.4c-0.5,3.9,2.1,5.5,3.9,6.4c0,0-30.2,1.3-31.4,0.2
							c-2-1.7-11.9-5.7-12-8.5c-0.1-2.9,6.1-6.2,8.2-8.3C182.2,292.6,213.4,296.2,216.6,298.6z"/>
						
							<linearGradient id="SVGID_25_" gradientUnits="userSpaceOnUse" x1="6848.6768" y1="3957.5359" x2="6841.6885" y2="3972.386" gradientTransform="matrix(2.930000e-02 0.9996 -0.9996 2.930000e-02 3985.2561 -6672.3228)">
							<stop  offset="0" style="stop-color:#2F3D63"/>
							<stop  offset="0.4322" style="stop-color:#2A3658"/>
							<stop  offset="1" style="stop-color:#252F4D"/>
						</linearGradient>
						
							<linearGradient id="SVGID_26_" gradientUnits="userSpaceOnUse" x1="6823.5308" y1="3965.7495" x2="6866.6821" y2="3965.7495" gradientTransform="matrix(2.930000e-02 0.9996 -0.9996 2.930000e-02 3985.2561 -6672.3228)">
							<stop  offset="0" style="stop-color:#8490B0"/>
							<stop  offset="0.3497" style="stop-color:#727E9E"/>
							<stop  offset="0.8051" style="stop-color:#5F6B8A"/>
							<stop  offset="1" style="stop-color:#54607F"/>
						</linearGradient>
						<path class="st28" d="M214.9,270.1c1.9-3.2,5.6-6.2,11.9-4.6c4.4,1.1,7.1,5,7,8.9c-0.1,2.6-6.8,26.4-10.9,32.4
							c0.2-3.9-2.5-5.6-5.3-6.4c-3.8-1-6.4,1.5-7.4,3.4C207.8,302.2,213,273.3,214.9,270.1z"/>
						
							<linearGradient id="SVGID_27_" gradientUnits="userSpaceOnUse" x1="561.1705" y1="1355.9257" x2="532.9266" y2="1346.608" gradientTransform="matrix(0.9878 0.1556 -0.1556 0.9878 -116.299 -1149.9908)">
							<stop  offset="0" style="stop-color:#86E3F8"/>
							<stop  offset="0.2972" style="stop-color:#55B7DD"/>
							<stop  offset="0.6144" style="stop-color:#278FC3"/>
							<stop  offset="0.8592" style="stop-color:#0B75B3"/>
							<stop  offset="1" style="stop-color:#006CAD"/>
						</linearGradient>
						<path class="st29" d="M196,249.6c0,0,1.7,8.5,16.5,11.7s18.8-3,18.8-3s7.3,13.1-2.8,24.5s-36,1-39-10.6S196,249.6,196,249.6z"
							/>
						<g>
							
								<linearGradient id="SVGID_28_" gradientUnits="userSpaceOnUse" x1="3488.4482" y1="1336.5016" x2="3530.4253" y2="1336.5016" gradientTransform="matrix(0.9878 0.1556 -0.1556 0.9878 -3045.2415 -1611.3201)">
								<stop  offset="0" style="stop-color:#112B60"/>
								<stop  offset="0.2002" style="stop-color:#133165"/>
								<stop  offset="0.4598" style="stop-color:#1A4174"/>
								<stop  offset="0.7507" style="stop-color:#255B8B"/>
								<stop  offset="0.999" style="stop-color:#3078A5"/>
							</linearGradient>
							<path class="st30" d="M193.4,249.8c-1.5,3.3-2.8,8.8,18,12.8c20.3,3.9,25.3-2.7,21.9-9.2
								C230.2,247.2,196.1,243.9,193.4,249.8z"/>
						</g>
						
							<linearGradient id="SVGID_29_" gradientUnits="userSpaceOnUse" x1="559.862" y1="1293.9922" x2="532.7827" y2="1321.7266" gradientTransform="matrix(0.9878 0.1556 -0.1556 0.9878 -116.299 -1149.9908)">
							<stop  offset="0" style="stop-color:#86E3F8"/>
							<stop  offset="0.2972" style="stop-color:#55B7DD"/>
							<stop  offset="0.6144" style="stop-color:#278FC3"/>
							<stop  offset="0.8592" style="stop-color:#0B75B3"/>
							<stop  offset="1" style="stop-color:#006CAD"/>
						</linearGradient>
						<path class="st31" d="M246.6,231.9c-2.6,16.4-17.1,27.7-32.4,25.3c-15.3-2.4-25.6-17.6-23-34s15.5-26.5,32.2-23.9
							S249.2,215.5,246.6,231.9z"/>
						
							<linearGradient id="SVGID_30_" gradientUnits="userSpaceOnUse" x1="531.1074" y1="1285.4977" x2="559.8472" y2="1285.4977" gradientTransform="matrix(0.9878 0.1556 -0.1556 0.9878 -116.299 -1149.9908)">
							<stop  offset="0" style="stop-color:#112B60"/>
							<stop  offset="0.2002" style="stop-color:#133165"/>
							<stop  offset="0.4598" style="stop-color:#1A4174"/>
							<stop  offset="0.7507" style="stop-color:#255B8B"/>
							<stop  offset="0.999" style="stop-color:#3078A5"/>
						</linearGradient>
						<path class="st32" d="M236.7,206.9c-0.4,2.2-7,3-14.8,1.8s-13.9-4-13.6-6.2s7-3,14.8-1.8S237.1,204.7,236.7,206.9z"/>
						
							<linearGradient id="SVGID_31_" gradientUnits="userSpaceOnUse" x1="537.2835" y1="1286.5449" x2="554.8828" y2="1286.5449" gradientTransform="matrix(0.9878 0.1556 -0.1556 0.9878 -116.299 -1149.9908)">
							<stop  offset="0" style="stop-color:#112B60"/>
							<stop  offset="0.2002" style="stop-color:#133165"/>
							<stop  offset="0.4598" style="stop-color:#1A4174"/>
							<stop  offset="0.7507" style="stop-color:#255B8B"/>
							<stop  offset="0.999" style="stop-color:#3078A5"/>
						</linearGradient>
						<path class="st33" d="M231.8,206.1L231.8,206.1C231.8,206,231.8,206,231.8,206.1c0.2-1.1-3.6-2.5-8.4-3.3
							c-4.8-0.8-8.8-0.6-9,0.4v0.1l0,0l-0.5,3.5c5.1,1.9,12.4,2.8,17.4,2.5C231.3,209.2,231.4,208.6,231.8,206.1z"/>
						<g>
							
								<linearGradient id="SVGID_32_" gradientUnits="userSpaceOnUse" x1="-388.9309" y1="1274.946" x2="-377.0878" y2="1274.946" gradientTransform="matrix(0.9878 0.1556 -0.1556 0.9878 -3045.2415 -1611.3201)">
								<stop  offset="0" style="stop-color:#66E5FF"/>
								<stop  offset="0.1515" style="stop-color:#52D1F3"/>
								<stop  offset="0.5346" style="stop-color:#26A3D7"/>
								<stop  offset="0.83" style="stop-color:#0A87C5"/>
								<stop  offset="1" style="stop-color:#007CBF"/>
							</linearGradient>
							<path class="st34" d="M233.1,192.9c0.8-5.3-2.7-10.1-7.7-10.2c-4.1,0-7.5,3.5-8.2,7.9l-1.9,12.1l0,0c0,0.1-0.1,0.1-0.1,0.1
								c-0.2,1.1,3.2,2.5,7.6,3.2s8.1,0.4,8.2-0.7c0-0.1,0-0.1,0-0.2l0,0L233.1,192.9z"/>
						</g>
						
							<linearGradient id="SVGID_33_" gradientUnits="userSpaceOnUse" x1="619.6378" y1="1294.7236" x2="575.2335" y2="1349.4647" gradientTransform="matrix(0.9846 0.1749 -0.1749 0.9846 -126.5388 -1245.8135)">
							<stop  offset="0" style="stop-color:#86E3F8"/>
							<stop  offset="0.2972" style="stop-color:#55B7DD"/>
							<stop  offset="0.6144" style="stop-color:#278FC3"/>
							<stop  offset="0.8592" style="stop-color:#0B75B3"/>
							<stop  offset="1" style="stop-color:#006CAD"/>
						</linearGradient>
						<circle class="st35" cx="231.4" cy="159.6" r="40.5"/>
						
							<linearGradient id="SVGID_34_" gradientUnits="userSpaceOnUse" x1="561.4274" y1="1322.3665" x2="580.4804" y2="1322.3665" gradientTransform="matrix(0.9846 0.1749 -0.1749 0.9846 -126.5388 -1245.8135)">
							<stop  offset="0" style="stop-color:#112B60"/>
							<stop  offset="0.2002" style="stop-color:#133165"/>
							<stop  offset="0.4598" style="stop-color:#1A4174"/>
							<stop  offset="0.7507" style="stop-color:#255B8B"/>
							<stop  offset="0.999" style="stop-color:#3078A5"/>
						</linearGradient>
						<path class="st36" d="M213.7,157.7c-1.1,6.4-6.2,10.8-11.4,9.9c-5.2-0.9-8.5-6.8-7.3-13.2s6.2-10.8,11.4-9.9
							S214.9,151.3,213.7,157.7z"/>
						
							<linearGradient id="SVGID_35_" gradientUnits="userSpaceOnUse" x1="3529.9753" y1="1322.413" x2="3544.5908" y2="1322.413" gradientTransform="matrix(0.9846 0.1749 -0.1749 0.9846 -3045.8936 -1764.364)">
							<stop  offset="0" style="stop-color:#0F5FA8"/>
							<stop  offset="4.420000e-02" style="stop-color:#1164AC"/>
							<stop  offset="0.4758" style="stop-color:#2292D2"/>
							<stop  offset="0.8085" style="stop-color:#2CAEEA"/>
							<stop  offset="1" style="stop-color:#30B9F3"/>
						</linearGradient>
						<path class="st37" d="M212.8,157.6c-0.9,4.9-4.8,8.3-8.8,7.6s-6.5-5.2-5.6-10.1c0.9-4.9,4.8-8.3,8.8-7.6
							C211.1,148.2,213.6,152.7,212.8,157.6z"/>
						
							<linearGradient id="SVGID_36_" gradientUnits="userSpaceOnUse" x1="1559.4718" y1="-3016.1213" x2="1573.2257" y2="-3024.0618" gradientTransform="matrix(0.1949 0.9808 -0.9808 0.1949 -3065.2498 -729.315)">
							<stop  offset="0" style="stop-color:#112B60"/>
							<stop  offset="0.2002" style="stop-color:#133165"/>
							<stop  offset="0.4598" style="stop-color:#1A4174"/>
							<stop  offset="0.7507" style="stop-color:#255B8B"/>
							<stop  offset="0.999" style="stop-color:#3078A5"/>
						</linearGradient>
						<path class="st38" d="M203.2,227.3c-3.8,1.2-7.4-1.9-7.9-6.8s2.1-9.9,5.9-11s7.4,1.9,7.9,6.8S207,226.2,203.2,227.3z"/>
						
							<linearGradient id="SVGID_37_" gradientUnits="userSpaceOnUse" x1="638.3554" y1="1307.6837" x2="590.4482" y2="1321.8785" gradientTransform="matrix(0.9846 0.1749 -0.1749 0.9846 -126.5388 -1245.8135)">
							<stop  offset="0" style="stop-color:#1E345C"/>
							<stop  offset="0.2311" style="stop-color:#1D3762"/>
							<stop  offset="0.5308" style="stop-color:#1A4172"/>
							<stop  offset="0.8668" style="stop-color:#16518C"/>
							<stop  offset="0.999" style="stop-color:#145899"/>
						</linearGradient>
						<path class="st39" d="M248.1,143.3c0,0-15.3-2.7-22.1,4.3s-5.6,19.2,8.8,17.8s23.1,1.2,27.4,3.1s11.2-4.2,8-12.8
							C267.2,147.1,255.4,143.8,248.1,143.3z"/>
						<path class="st40" d="M267,156.2c0,0,1.1,0,2.1,0.3c0,0-0.2,3.8-3.9,8.5c0,0-0.6-0.1-1.5-0.3
							C266.5,160.6,266.9,157.7,267,156.2z"/>
						
							<linearGradient id="SVGID_38_" gradientUnits="userSpaceOnUse" x1="3492.4966" y1="1355.9164" x2="3505.2986" y2="1355.9164" gradientTransform="matrix(0.9878 0.1556 -0.1556 0.9878 -3045.2415 -1611.3201)">
							<stop  offset="0" style="stop-color:#112B60"/>
							<stop  offset="0.2002" style="stop-color:#133165"/>
							<stop  offset="0.4598" style="stop-color:#1A4174"/>
							<stop  offset="0.7507" style="stop-color:#255B8B"/>
							<stop  offset="0.999" style="stop-color:#3078A5"/>
						</linearGradient>
						<circle class="st41" cx="200.1" cy="272.5" r="6.4"/>
						
							<linearGradient id="SVGID_39_" gradientUnits="userSpaceOnUse" x1="2621.2307" y1="5478.6699" x2="2634.3105" y2="5478.6699" gradientTransform="matrix(2.729875e-03 1 -1 2.729875e-03 5664.2461 -2333.5889)">
							<stop  offset="0" style="stop-color:#112B60"/>
							<stop  offset="0.2002" style="stop-color:#133165"/>
							<stop  offset="0.4598" style="stop-color:#1A4174"/>
							<stop  offset="0.7507" style="stop-color:#255B8B"/>
							<stop  offset="0.999" style="stop-color:#3078A5"/>
						</linearGradient>
						<path class="st42" d="M192.8,315.7c-3.5,0-6.3-2.9-6.4-6.5c0-3.6,2.8-6.5,6.3-6.6s6.3,2.9,6.4,6.5
							C199.1,312.7,196.3,315.7,192.8,315.7z"/>
						
							<linearGradient id="SVGID_40_" gradientUnits="userSpaceOnUse" x1="175.8902" y1="627.937" x2="216.1869" y2="590.6034" gradientTransform="matrix(1 0 0 1 0 -318)">
							<stop  offset="0" style="stop-color:#86E3F8"/>
							<stop  offset="0.2972" style="stop-color:#55B7DD"/>
							<stop  offset="0.6144" style="stop-color:#278FC3"/>
							<stop  offset="0.8592" style="stop-color:#0B75B3"/>
							<stop  offset="1" style="stop-color:#006CAD"/>
						</linearGradient>
						<path class="st43" d="M189.6,274.9c1.7-3.3,5.2-6.6,11.6-5.4c4.5,0.8,7.4,4.5,7.6,8.4c0.1,2.6-5.1,26.8-8.8,33
							c-0.1-3.9-2.8-5.5-5.7-6c-3.8-0.8-6.3,1.9-7.1,3.8C184.7,307.4,187.9,278.2,189.6,274.9z"/>
						
							<linearGradient id="SVGID_41_" gradientUnits="userSpaceOnUse" x1="5038.915" y1="2463.0393" x2="5055.5801" y2="2446.3748" gradientTransform="matrix(-0.6497 0.7602 -0.7602 -0.6497 5299.7583 -1929.3906)">
							<stop  offset="0" style="stop-color:#141A2B"/>
							<stop  offset="0.5939" style="stop-color:#202842"/>
							<stop  offset="1" style="stop-color:#252F4D"/>
						</linearGradient>
						
							<linearGradient id="SVGID_42_" gradientUnits="userSpaceOnUse" x1="5844.4795" y1="4253.1885" x2="5867.981" y2="4253.1885" gradientTransform="matrix(0.2258 0.9742 -0.9742 0.2258 2975.2776 -6352.8696)">
							<stop  offset="0" style="stop-color:#8490B0"/>
							<stop  offset="0.3497" style="stop-color:#727E9E"/>
							<stop  offset="0.8051" style="stop-color:#5F6B8A"/>
							<stop  offset="1" style="stop-color:#54607F"/>
						</linearGradient>
						<path class="st44" d="M161.2,318.4c0,0-9.8,7.7-13.8,6.2s-3.9-3.6-3.8-5c0.2-2,3.4-9.2,6.1-13.9c3.1-5.6,8.3-6.2,11.1-4
							C169.1,308.2,165.4,313.5,161.2,318.4z"/>
						
							<linearGradient id="SVGID_43_" gradientUnits="userSpaceOnUse" x1="2618.8369" y1="5500.8677" x2="2636.6858" y2="5500.8677" gradientTransform="matrix(2.729875e-03 1 -1 2.729875e-03 5664.2461 -2333.5889)">
							<stop  offset="0" style="stop-color:#2F3D63"/>
							<stop  offset="0.4322" style="stop-color:#2A3658"/>
							<stop  offset="1" style="stop-color:#252F4D"/>
						</linearGradient>
						
							<linearGradient id="SVGID_44_" gradientUnits="userSpaceOnUse" x1="5845.0088" y1="4235.8389" x2="5868.7759" y2="4235.8389" gradientTransform="matrix(0.2258 0.9742 -0.9742 0.2258 2975.2776 -6352.8696)">
							<stop  offset="0" style="stop-color:#8490B0"/>
							<stop  offset="0.3497" style="stop-color:#727E9E"/>
							<stop  offset="0.8051" style="stop-color:#5F6B8A"/>
							<stop  offset="1" style="stop-color:#54607F"/>
						</linearGradient>
						<path class="st45" d="M192.8,302.8c0,0-4.6,2.6-4.9,6.7c-0.2,3.9,2.4,5.3,4.3,6.1c0,0-30,3.3-31.4,2.3
							c-2.1-1.6-12.2-4.9-12.5-7.7c-0.3-2.9,5.6-6.6,7.6-8.8C158,299.1,189.4,300.6,192.8,302.8z"/>
					</g>
				</g>
			</g>
		</g>
		<g>
			
				<linearGradient id="SVGID_45_" gradientUnits="userSpaceOnUse" x1="284.3" y1="618.1654" x2="284.3" y2="637.7577" gradientTransform="matrix(1 0 0 1 0 -318)">
				<stop  offset="0" style="stop-color:#0E1A31"/>
				<stop  offset="0.7443" style="stop-color:#14243D;stop-opacity:0.2557"/>
				<stop  offset="1" style="stop-color:#172842;stop-opacity:0"/>
			</linearGradient>
			<ellipse class="st46" cx="284.3" cy="310.1" rx="0.9" ry="11.1"/>
			
				<linearGradient id="SVGID_46_" gradientUnits="userSpaceOnUse" x1="297.5" y1="611.9701" x2="297.5" y2="631.5624" gradientTransform="matrix(1 0 0 1 0 -318)">
				<stop  offset="0" style="stop-color:#0E1A31"/>
				<stop  offset="0.7443" style="stop-color:#14243D;stop-opacity:0.2557"/>
				<stop  offset="1" style="stop-color:#172842;stop-opacity:0"/>
			</linearGradient>
			<ellipse class="st47" cx="297.5" cy="303.9" rx="0.9" ry="11.1"/>
			
				<linearGradient id="SVGID_47_" gradientUnits="userSpaceOnUse" x1="9776.5488" y1="1802.9224" x2="9776.5488" y2="1822.5146" gradientTransform="matrix(-0.6189 0.7855 -0.7855 -0.6189 7778.8975 -6221.9395)">
				<stop  offset="0" style="stop-color:#0E1A31"/>
				<stop  offset="0.7443" style="stop-color:#14243D;stop-opacity:0.2557"/>
				<stop  offset="1" style="stop-color:#172842;stop-opacity:0"/>
			</linearGradient>
			<path class="st48" d="M303.5,336.1c-4.8-3.8-8.5-7.2-8.2-7.5c0.3-0.4,4.4,2.4,9.3,6.2c4.8,3.8,8.5,7.2,8.2,7.5
				S308.3,339.9,303.5,336.1z"/>
			
				<linearGradient id="SVGID_48_" gradientUnits="userSpaceOnUse" x1="9790.6094" y1="1808.6274" x2="9790.6094" y2="1828.2195" gradientTransform="matrix(-0.6189 0.7855 -0.7855 -0.6189 7778.8975 -6221.9395)">
				<stop  offset="0" style="stop-color:#0E1A31"/>
				<stop  offset="0.7443" style="stop-color:#14243D;stop-opacity:0.2557"/>
				<stop  offset="1" style="stop-color:#172842;stop-opacity:0"/>
			</linearGradient>
			<path class="st49" d="M290.3,343.6c-4.8-3.8-8.5-7.2-8.2-7.5c0.3-0.4,4.4,2.4,9.3,6.2c4.8,3.8,8.5,7.2,8.2,7.5
				C299.3,350.2,295.1,347.4,290.3,343.6z"/>
			<g>
				
					<linearGradient id="SVGID_49_" gradientUnits="userSpaceOnUse" x1="283.68" y1="642.95" x2="300.22" y2="642.95" gradientTransform="matrix(1 0 0 1 0 -318)">
					<stop  offset="0" style="stop-color:#48CDF3"/>
					<stop  offset="0.4692" style="stop-color:#3BC2F3"/>
					<stop  offset="1" style="stop-color:#30B9F3"/>
				</linearGradient>
				<line class="st50" x1="284.7" y1="300.8" x2="299.2" y2="349.1"/>
				
					<linearGradient id="SVGID_50_" gradientUnits="userSpaceOnUse" x1="296.72" y1="635.65" x2="313.27" y2="635.65" gradientTransform="matrix(1 0 0 1 0 -318)">
					<stop  offset="0" style="stop-color:#48CDF3"/>
					<stop  offset="0.4692" style="stop-color:#3BC2F3"/>
					<stop  offset="1" style="stop-color:#30B9F3"/>
				</linearGradient>
				<line class="st51" x1="297.7" y1="293.5" x2="312.3" y2="341.8"/>
				
					<linearGradient id="SVGID_51_" gradientUnits="userSpaceOnUse" x1="286.1" y1="623.25" x2="301.15" y2="623.25" gradientTransform="matrix(1 0 0 1 0 -318)">
					<stop  offset="0" style="stop-color:#48CDF3"/>
					<stop  offset="0.4692" style="stop-color:#3BC2F3"/>
					<stop  offset="1" style="stop-color:#30B9F3"/>
				</linearGradient>
				<line class="st52" x1="287.1" y1="308.9" x2="300.1" y2="301.6"/>
				
					<linearGradient id="SVGID_52_" gradientUnits="userSpaceOnUse" x1="289.57" y1="634.7" x2="304.62" y2="634.7" gradientTransform="matrix(1 0 0 1 0 -318)">
					<stop  offset="0" style="stop-color:#48CDF3"/>
					<stop  offset="0.4692" style="stop-color:#3BC2F3"/>
					<stop  offset="1" style="stop-color:#30B9F3"/>
				</linearGradient>
				<line class="st53" x1="290.6" y1="320.4" x2="303.6" y2="313"/>
				
					<linearGradient id="SVGID_53_" gradientUnits="userSpaceOnUse" x1="293.04" y1="646.15" x2="308.09" y2="646.15" gradientTransform="matrix(1 0 0 1 0 -318)">
					<stop  offset="0" style="stop-color:#48CDF3"/>
					<stop  offset="0.4692" style="stop-color:#3BC2F3"/>
					<stop  offset="1" style="stop-color:#30B9F3"/>
				</linearGradient>
				<line class="st54" x1="294" y1="331.8" x2="307.1" y2="324.5"/>
				
					<linearGradient id="SVGID_54_" gradientUnits="userSpaceOnUse" x1="296.52" y1="657.65" x2="311.57" y2="657.65" gradientTransform="matrix(1 0 0 1 0 -318)">
					<stop  offset="0" style="stop-color:#48CDF3"/>
					<stop  offset="0.4692" style="stop-color:#3BC2F3"/>
					<stop  offset="1" style="stop-color:#30B9F3"/>
				</linearGradient>
				<line class="st55" x1="297.5" y1="343.3" x2="310.6" y2="336"/>
			</g>
		</g>
		<rect class="st56" width="400" height="400"/>
		<g>
			<g>
				
					<linearGradient id="SVGID_55_" gradientUnits="userSpaceOnUse" x1="2170.9551" y1="-2778.0095" x2="2149.3718" y2="-2772.7258" gradientTransform="matrix(0.2797 0.9601 -0.9601 0.2797 -3071.8396 -1070.2998)">
					<stop  offset="0" style="stop-color:#86E3F8"/>
					<stop  offset="0.2972" style="stop-color:#55B7DD"/>
					<stop  offset="0.6144" style="stop-color:#278FC3"/>
					<stop  offset="0.8592" style="stop-color:#0B75B3"/>
					<stop  offset="1" style="stop-color:#006CAD"/>
				</linearGradient>
				<path class="st57" d="M199.6,213.1c-3.8,1.1-12.9,15.8-13.3,20.9c-0.5,6.4,6.7,9.1,10.4,6.3c3.9-3,10.5-18.4,9.8-22.8
					C205.8,213,203.3,212,199.6,213.1z"/>
			</g>
			
				<linearGradient id="SVGID_56_" gradientUnits="userSpaceOnUse" x1="183.5" y1="559.5" x2="193.92" y2="559.5" gradientTransform="matrix(1 0 0 1 0 -318)">
				<stop  offset="0" style="stop-color:#112B60"/>
				<stop  offset="0.2002" style="stop-color:#133165"/>
				<stop  offset="0.4598" style="stop-color:#1A4174"/>
				<stop  offset="0.7507" style="stop-color:#255B8B"/>
				<stop  offset="0.999" style="stop-color:#3078A5"/>
			</linearGradient>
			<circle class="st58" cx="188.7" cy="241.5" r="5.2"/>
			
				<linearGradient id="SVGID_57_" gradientUnits="userSpaceOnUse" x1="3188.585" y1="811.0312" x2="3205.7495" y2="820.9412" gradientTransform="matrix(9.510000e-02 0.9955 -0.9955 9.510000e-02 681.7232 -3023.3218)">
				<stop  offset="0" style="stop-color:#86E3F8"/>
				<stop  offset="0.2972" style="stop-color:#55B7DD"/>
				<stop  offset="0.6144" style="stop-color:#278FC3"/>
				<stop  offset="0.8592" style="stop-color:#0B75B3"/>
				<stop  offset="1" style="stop-color:#006CAD"/>
			</linearGradient>
			<path class="st59" d="M170.6,224.7c-3.1-1.3-8.2-2.4-9.8,4.5c-2,8.6,6.9,13.9,13.8,18.9c7.2,5.2,16.4-3.3,10.6-11.9
				C181.3,230.4,174.3,226.2,170.6,224.7z"/>
			
				<linearGradient id="SVGID_58_" gradientUnits="userSpaceOnUse" x1="9574.3477" y1="-146.7681" x2="9584.7686" y2="-146.7681" gradientTransform="matrix(-0.8277 0.5611 -0.5611 -0.8277 8005.6602 -5268.4487)">
				<stop  offset="0" style="stop-color:#112B60"/>
				<stop  offset="0.2002" style="stop-color:#133165"/>
				<stop  offset="0.4598" style="stop-color:#1A4174"/>
				<stop  offset="0.7507" style="stop-color:#255B8B"/>
				<stop  offset="0.999" style="stop-color:#3078A5"/>
			</linearGradient>
			<circle class="st60" cx="158.6" cy="228.4" r="5.2"/>
			
				<linearGradient id="SVGID_59_" gradientUnits="userSpaceOnUse" x1="11912.6484" y1="-2110.7822" x2="11931.1885" y2="-2121.4873" gradientTransform="matrix(-0.9807 0.1954 0.1954 0.9807 12253.4219 -28.4156)">
				<stop  offset="0" style="stop-color:#0B4173"/>
				<stop  offset="0.2891" style="stop-color:#1F6FA2"/>
				<stop  offset="0.6099" style="stop-color:#329CD0"/>
				<stop  offset="0.8575" style="stop-color:#3EB8EC"/>
				<stop  offset="1" style="stop-color:#43C2F7"/>
			</linearGradient>
			<path class="st61" d="M157.1,226.2c0,0-0.7-4.3-5.7-6.2s-5.2-0.3-4.3,0.6c0.9,0.9,2.6,1.8,2.2,2.3s-10.6-2.8-12.1,0.1
				s2.9,12.3,19.9,7.7C157.2,230.7,158.1,228.8,157.1,226.2z"/>
		</g>
		<g>
			
				<linearGradient id="SVGID_60_" gradientUnits="userSpaceOnUse" x1="561.074" y1="-3718.5562" x2="564.331" y2="-3732.0093" gradientTransform="matrix(0.623 -0.7822 0.7822 0.623 2828.2075 2990.3984)">
				<stop  offset="0" style="stop-color:#86E3F8"/>
				<stop  offset="0.2972" style="stop-color:#55B7DD"/>
				<stop  offset="0.6144" style="stop-color:#278FC3"/>
				<stop  offset="0.8592" style="stop-color:#0B75B3"/>
				<stop  offset="1" style="stop-color:#006CAD"/>
			</linearGradient>
			<path class="st62" d="M251.6,228.1c-1.7,2.7-3.5,7.3,2.6,9.9c7.7,3.2,14.2-4.2,20-9.9c6-5.9-0.4-15.9-9.4-11.9
				C258.7,219,253.6,224.9,251.6,228.1z"/>
			
				<linearGradient id="SVGID_61_" gradientUnits="userSpaceOnUse" x1="574.4892" y1="-3724.4014" x2="583.4897" y2="-3724.4014" gradientTransform="matrix(0.623 -0.7822 0.7822 0.623 2828.2075 2990.3984)">
				<stop  offset="0" style="stop-color:#112B60"/>
				<stop  offset="0.2002" style="stop-color:#133165"/>
				<stop  offset="0.4598" style="stop-color:#1A4174"/>
				<stop  offset="0.7507" style="stop-color:#255B8B"/>
				<stop  offset="0.999" style="stop-color:#3078A5"/>
			</linearGradient>
			<circle class="st63" cx="275.7" cy="217.2" r="4.5"/>
			
				<linearGradient id="SVGID_62_" gradientUnits="userSpaceOnUse" x1="941.1357" y1="1686.8075" x2="959.7286" y2="1686.8075" gradientTransform="matrix(0.9639 0.2663 -0.2663 0.9639 -182.3826 -1663.7264)">
				<stop  offset="0" style="stop-color:#0B4173"/>
				<stop  offset="0.2891" style="stop-color:#1F6FA2"/>
				<stop  offset="0.6099" style="stop-color:#329CD0"/>
				<stop  offset="0.8575" style="stop-color:#3EB8EC"/>
				<stop  offset="1" style="stop-color:#43C2F7"/>
			</linearGradient>
			<path class="st64" d="M275.1,214.8c0,0,1-4,5.9-5.5s4.9,0.1,4,0.9s-2.6,1.5-2.2,2s10.2-1.9,11.4,1c1.2,2.9-3.6,11.4-19.5,5.9
				C274.8,219,274.1,217.1,275.1,214.8z"/>
		</g>
		<g>
			<g class="st13">
				
					<linearGradient id="SVGID_63_" gradientUnits="userSpaceOnUse" x1="152.3964" y1="414.2" x2="162.293" y2="414.2" gradientTransform="matrix(1 0 0 1 0 -318)">
					<stop  offset="0" style="stop-color:#30B9F3"/>
					<stop  offset="0.646" style="stop-color:#1187C5"/>
					<stop  offset="0.9692" style="stop-color:#006CAD"/>
				</linearGradient>
				<path class="st65" d="M162.2,95.7c0-0.3,0.1-0.5,0.1-0.8c0-1.2-0.4-2.1-1.1-2.5l-3.2-1.9c0.7,0.4,1.1,1.3,1.1,2.5
					c0,0.3,0,0.6-0.1,0.9c0,0.1,0,0.1,0,0.1c-0.1,0.3-0.1,0.6-0.2,0.8v0.1c-0.1,0.3-0.2,0.6-0.3,0.9l0,0c-0.1,0.3-0.3,0.6-0.5,0.9
					l0,0c-0.2,0.3-0.4,0.6-0.5,0.8c0,0,0,0.1-0.1,0.1c-0.2,0.2-0.4,0.5-0.6,0.7c0,0.1-0.1,0.1-0.1,0.1c-0.2,0.2-0.3,0.3-0.5,0.5
					c-0.1,0.1-0.1,0.1-0.2,0.2c-0.2,0.2-0.5,0.4-0.7,0.5s-0.3,0.2-0.5,0.2c-0.1,0-0.1,0-0.1,0.1c-0.1,0-0.2,0.1-0.3,0.1
					s-0.1,0-0.2,0.1c-0.1,0-0.1,0-0.2,0c-0.1,0-0.1,0-0.2,0h-0.1c-0.1,0-0.2,0-0.2,0s0,0-0.1,0s-0.2,0-0.3,0H153
					c-0.1,0-0.1,0-0.2-0.1c0,0,0,0-0.1,0s-0.2-0.1-0.2-0.1l0,0l0,0l0,0l3.2,1.9l0,0c0.1,0,0.1,0.1,0.2,0.1l0,0c0,0,0,0,0.1,0h0.1
					h0.1h0.1l0,0c0.1,0,0.2,0,0.2,0l0,0c0,0,0,0,0.1,0s0.1,0,0.2,0c0,0,0,0,0.1,0h0.1h0.1h0.1c0.1,0,0.1,0,0.2,0h0.1h0.1
					c0.1,0,0.2-0.1,0.3-0.1h0.1c0,0,0,0,0.1,0c0.2-0.1,0.3-0.2,0.5-0.2c0.2-0.1,0.5-0.3,0.7-0.5c0.1-0.1,0.1-0.1,0.2-0.2
					c0.1-0.1,0.2-0.2,0.3-0.3c0.1-0.1,0.1-0.1,0.1-0.2s0.1-0.1,0.1-0.1c0.1-0.1,0.1-0.1,0.1-0.2c0.1-0.1,0.2-0.2,0.3-0.4
					c0-0.1,0.1-0.1,0.1-0.1s0-0.1,0.1-0.1c0-0.1,0.1-0.1,0.1-0.1c0.1-0.1,0.1-0.2,0.2-0.3c0.1-0.1,0.1-0.2,0.2-0.3l0,0l0,0
					c0.1-0.1,0.1-0.2,0.1-0.3c0.1-0.1,0.1-0.2,0.2-0.3c0.1-0.1,0.1-0.2,0.1-0.3l0,0l0,0c0.1-0.1,0.1-0.2,0.1-0.3
					c0.1-0.1,0.1-0.2,0.1-0.4c0-0.1,0-0.1,0.1-0.2v-0.1c0-0.1,0-0.1,0-0.1c0-0.2,0.1-0.3,0.1-0.4s0-0.2,0.1-0.3c0-0.1,0-0.1,0-0.1
					C162.2,95.8,162.2,95.8,162.2,95.7z"/>
				
					<linearGradient id="SVGID_64_" gradientUnits="userSpaceOnUse" x1="132.97" y1="425.4" x2="142.87" y2="425.4" gradientTransform="matrix(1 0 0 1 0 -318)">
					<stop  offset="0" style="stop-color:#30B9F3"/>
					<stop  offset="0.646" style="stop-color:#1187C5"/>
					<stop  offset="0.9692" style="stop-color:#006CAD"/>
				</linearGradient>
				<path class="st66" d="M142.8,106.9c0-0.3,0.1-0.5,0.1-0.8c0-1.2-0.4-2.1-1.1-2.5l-3.2-1.9c0.7,0.4,1.1,1.3,1.1,2.5
					c0,0.3,0,0.6-0.1,0.9c0,0.1,0,0.1,0,0.1c-0.1,0.3-0.1,0.6-0.2,0.8v0.1c-0.1,0.3-0.2,0.6-0.3,0.9l0,0c-0.1,0.3-0.3,0.6-0.5,0.9
					l0,0c-0.2,0.3-0.4,0.6-0.5,0.8c0,0,0,0.1-0.1,0.1c-0.2,0.2-0.4,0.5-0.6,0.7c0,0.1-0.1,0.1-0.1,0.1c-0.2,0.2-0.3,0.3-0.5,0.5
					c-0.1,0.1-0.1,0.1-0.2,0.2c-0.2,0.2-0.5,0.4-0.7,0.5s-0.3,0.2-0.5,0.2c-0.1,0-0.1,0-0.1,0.1c-0.1,0-0.2,0.1-0.3,0.1
					s-0.1,0-0.2,0.1c-0.1,0-0.1,0-0.2,0c-0.1,0-0.1,0-0.2,0h-0.1c-0.1,0-0.2,0-0.2,0s0,0-0.1,0s-0.2,0-0.3,0h-0.1
					c-0.1,0-0.1,0-0.2-0.1h-0.1c-0.1,0-0.2-0.1-0.3-0.1l0,0l0,0l0,0l3.2,1.9l0,0c0.1,0,0.1,0.1,0.2,0.1l0,0c0,0,0,0,0.1,0h0.1h0.1
					h0.1l0,0c0.1,0,0.2,0,0.2,0l0,0c0,0,0,0,0.1,0s0.1,0,0.2,0c0,0,0,0,0.1,0h0.1h0.1h0.1c0.1,0,0.1,0,0.2,0h0.1h0.1
					c0.1,0,0.2-0.1,0.3-0.1h0.1c0,0,0,0,0.1,0c0.2-0.1,0.3-0.2,0.5-0.2c0.2-0.1,0.5-0.3,0.7-0.5c0.1-0.1,0.1-0.1,0.2-0.2
					c0.1-0.1,0.2-0.2,0.3-0.3c0.1-0.1,0.1-0.1,0.1-0.2s0.1-0.1,0.1-0.1c0.1-0.1,0.1-0.1,0.1-0.2c0.1-0.1,0.2-0.2,0.3-0.4
					c0-0.1,0.1-0.1,0.1-0.1s0-0.1,0.1-0.1c0-0.1,0.1-0.1,0.1-0.1c0.1-0.1,0.1-0.2,0.2-0.3c0.1-0.1,0.1-0.2,0.2-0.3l0,0l0,0
					c0.1-0.1,0.1-0.2,0.1-0.3c0.1-0.1,0.1-0.2,0.2-0.3c0.1-0.1,0.1-0.2,0.1-0.3l0,0l0,0c0.1-0.1,0.1-0.2,0.1-0.3
					c0.1-0.1,0.1-0.2,0.1-0.4c0-0.1,0-0.1,0.1-0.2v-0.1c0-0.1,0-0.1,0-0.1c0-0.2,0.1-0.3,0.1-0.4s0-0.2,0.1-0.3c0-0.1,0-0.1,0-0.1
					C142.8,107,142.8,107,142.8,106.9z"/>
				
					<linearGradient id="SVGID_65_" gradientUnits="userSpaceOnUse" x1="113.5409" y1="436.7" x2="123.4368" y2="436.7" gradientTransform="matrix(1 0 0 1 0 -318)">
					<stop  offset="0" style="stop-color:#30B9F3"/>
					<stop  offset="0.646" style="stop-color:#1187C5"/>
					<stop  offset="0.9692" style="stop-color:#006CAD"/>
				</linearGradient>
				<path class="st67" d="M123.4,118.2c0-0.3,0.1-0.5,0.1-0.8c0-1.2-0.4-2.1-1.1-2.5l-3.2-1.9c0.7,0.4,1.1,1.3,1.1,2.5
					c0,0.3,0,0.6-0.1,0.9c0,0.1,0,0.1,0,0.1c-0.1,0.3-0.1,0.6-0.2,0.8v0.1c-0.1,0.3-0.2,0.6-0.3,0.9l0,0c-0.1,0.3-0.3,0.6-0.5,0.9
					l0,0c-0.2,0.3-0.3,0.6-0.5,0.8c0,0,0,0.1-0.1,0.1c-0.2,0.2-0.4,0.5-0.6,0.7c0,0.1-0.1,0.1-0.1,0.1c-0.2,0.2-0.3,0.3-0.5,0.5
					c-0.1,0.1-0.2,0.1-0.2,0.2c-0.2,0.2-0.5,0.4-0.7,0.5s-0.3,0.2-0.5,0.2c-0.1,0-0.1,0-0.2,0.1c-0.1,0-0.2,0.1-0.3,0.1
					c-0.1,0-0.1,0-0.2,0.1c-0.1,0-0.1,0-0.2,0s-0.1,0-0.2,0h-0.1c-0.1,0-0.2,0-0.2,0s0,0-0.1,0s-0.2,0-0.3,0h-0.1
					c-0.1,0-0.1,0-0.2-0.1c0,0,0,0-0.1,0s-0.2-0.1-0.3-0.1l3.2,1.9l0,0c0.1,0,0.1,0.1,0.2,0.1l0,0c0,0,0,0,0.1,0h0.1h0.1h0.1l0,0
					c0.1,0,0.2,0,0.2,0l0,0c0,0,0,0,0.1,0s0.1,0,0.2,0c0,0,0,0,0.1,0h0.1h0.1h0.1c0.1,0,0.1,0,0.2,0h0.1h0.1c0.1,0,0.2-0.1,0.3-0.1
					h0.1c0,0,0,0,0.1,0c0.2-0.1,0.3-0.2,0.5-0.2c0.2-0.2,0.5-0.3,0.7-0.5c0.1-0.1,0.2-0.1,0.2-0.2c0.1-0.1,0.2-0.2,0.3-0.3
					c0.1-0.1,0.1-0.1,0.2-0.2c0-0.1,0.1-0.1,0.1-0.1c0.1-0.1,0.1-0.1,0.2-0.2s0.2-0.2,0.3-0.4c0-0.1,0.1-0.1,0.1-0.1s0-0.1,0.1-0.1
					c0-0.1,0.1-0.1,0.1-0.1c0.1-0.1,0.2-0.2,0.2-0.3c0.1-0.1,0.1-0.2,0.2-0.3l0,0l0,0c0.1-0.1,0.1-0.2,0.2-0.3
					c0.1-0.1,0.1-0.2,0.2-0.3c0.1-0.1,0.1-0.2,0.1-0.3l0,0l0,0c0.1-0.1,0.1-0.2,0.1-0.3c0.1-0.1,0.1-0.2,0.1-0.4
					c0-0.1,0-0.1,0.1-0.2v-0.1v-0.1c0-0.2,0.1-0.3,0.1-0.4s0-0.2,0.1-0.3c0-0.1,0-0.1,0-0.1C123.4,118.3,123.4,118.2,123.4,118.2z"
					/>
				<g>
					
						<linearGradient id="SVGID_66_" gradientUnits="userSpaceOnUse" x1="91.9" y1="407.5" x2="182" y2="407.5" gradientTransform="matrix(1 0 0 1 0 -318)">
						<stop  offset="0" style="stop-color:#30B9F3"/>
						<stop  offset="0.646" style="stop-color:#1187C5"/>
						<stop  offset="0.9692" style="stop-color:#006CAD"/>
					</linearGradient>
					<polygon class="st68" points="96.3,115.5 91.9,113 177.6,63.5 182,66 					"/>
				</g>
				<g>
					
						<linearGradient id="SVGID_67_" gradientUnits="userSpaceOnUse" x1="91.94" y1="449.35" x2="96.3567" y2="449.35" gradientTransform="matrix(1 0 0 1 0 -318)">
						<stop  offset="0" style="stop-color:#30B9F3"/>
						<stop  offset="0.646" style="stop-color:#1187C5"/>
						<stop  offset="0.9692" style="stop-color:#006CAD"/>
					</linearGradient>
					<polygon class="st69" points="96.3,149.7 92,147.2 91.9,113 96.3,115.5 					"/>
				</g>
				<g>
					
						<linearGradient id="SVGID_68_" gradientUnits="userSpaceOnUse" x1="96.3" y1="425.8" x2="182.1" y2="425.8" gradientTransform="matrix(1 0 0 1 0 -318)">
						<stop  offset="0" style="stop-color:#48CDF3"/>
						<stop  offset="0.4692" style="stop-color:#3BC2F3"/>
						<stop  offset="1" style="stop-color:#30B9F3"/>
					</linearGradient>
					<path class="st70" d="M96.3,115.5L182,66l0.1,34.2L142.7,123l-0.1,5.4l-6.8-1.5l-39.4,22.7L96.3,115.5z M139,112.9
						c2.1-1.2,3.9-4.3,3.9-6.7s-1.8-3.5-3.9-2.2c-2.1,1.2-3.9,4.2-3.9,6.7C135.1,113.2,136.8,114.2,139,112.9 M158.4,101.7
						c2.1-1.2,3.9-4.3,3.9-6.7s-1.8-3.5-3.9-2.2c-2.1,1.2-3.9,4.2-3.9,6.7C154.5,101.9,156.3,102.9,158.4,101.7 M119.6,124.1
						c2.2-1.2,3.9-4.3,3.9-6.7s-1.8-3.5-3.9-2.2c-2.2,1.2-3.9,4.2-3.9,6.7S117.4,125.4,119.6,124.1"/>
				</g>
			</g>
		</g>
		<g>
			<line class="st71" x1="115.7" y1="176" x2="115.1" y2="169.7"/>
			<line class="st71" x1="105.7" y1="182.6" x2="100" y2="174.9"/>
			<line class="st71" x1="95.7" y1="194.1" x2="89.6" y2="193.5"/>
		</g>
	</g>
</g>
<g id="图层_5" class="st0">
</g>
</svg>
