<?xml version="1.0" encoding="UTF-8"?>
<svg width="10px" height="10px" viewBox="0 0 10 10" version="1.1" xmlns="http://www.w3.org/2000/svg" xmlns:xlink="http://www.w3.org/1999/xlink">
    <title>选中备份</title>
    <g id="组件规范" stroke="none" stroke-width="1" fill="none" fill-rule="evenodd">
        <g id="数据展示-标签" transform="translate(-668.000000, -645.000000)" fill="var(--blue-6, #31BEFA)" fill-rule="nonzero">
            <g id="编组-2" transform="translate(633.000000, 631.000000)">
                <g id="选中备份" transform="translate(35.000000, 14.000000)">
                    <path d="M0.00789141414,9.98263889 L8.86893563,9.99918327 C9.15254308,9.99971279 9.42833232,9.90625053 9.65318588,9.73340857 C9.87179726,9.56536489 9.99970321,9.30511521 9.99919712,9.029381 L9.98263889,0.00789141414 L9.98263889,0.00789141414 M9.01462542,6.02640993 L6.78398569,8.59375 C6.69981061,8.67792508 6.57354798,8.72001263 6.44728535,8.72001263 C6.36311027,8.72001263 6.27893518,8.67792508 6.1947601,8.63583755 L4.72169613,7.45738636 C4.55334596,7.33112374 4.51125842,7.03651094 4.63752104,6.86816078 C4.76378367,6.69981061 5.05839646,6.65772307 5.22674664,6.78398569 L6.40519781,7.70991162 L8.38331229,5.43718434 C8.55166246,5.26883417 8.80418772,5.22674664 8.97253788,5.3950968 C9.18297559,5.60553451 9.18297559,5.85805976 9.01462542,6.02640993 L9.01462542,6.02640993 Z" id="形状"></path>
                </g>
            </g>
        </g>
    </g>
</svg>