<svg id="图层_2" data-name="图层 2" xmlns="http://www.w3.org/2000/svg" xmlns:xlink="http://www.w3.org/1999/xlink" width="400" height="400" viewBox="0 0 400 400">
  <defs>
    <style>
      .cls-1, .cls-2 {
        fill: none;
      }

      .cls-2 {
        clip-rule: evenodd;
      }

      .cls-3, .cls-4, .cls-5 {
        fill: #1c2a47;
        stroke-linecap: round;
        stroke-linejoin: round;
        stroke-width: 2px;
      }

      .cls-3 {
        stroke: url(#未命名的渐变_163);
      }

      .cls-4 {
        stroke: url(#未命名的渐变_163-2);
      }

      .cls-5 {
        stroke: url(#未命名的渐变_163-3);
      }

      .cls-6 {
        clip-path: url(#clip-path);
      }

      .cls-7 {
        clip-path: url(#clip-path-2);
      }

      .cls-8 {
        clip-path: url(#clip-path-3);
      }

      .cls-9 {
        clip-path: url(#clip-path-4);
      }

      .cls-10 {
        clip-path: url(#clip-path-5);
      }

      .cls-11 {
        clip-path: url(#clip-path-6);
      }
    </style>
    <linearGradient id="未命名的渐变_163" data-name="未命名的渐变 163" x1="54.03" y1="206.1" x2="345.97" y2="206.1" gradientUnits="userSpaceOnUse">
      <stop offset="0" stop-color="#8693b3"/>
      <stop offset="0.19" stop-color="#7a86a6"/>
      <stop offset="0.71" stop-color="#5c6887"/>
      <stop offset="1" stop-color="#515d7b"/>
    </linearGradient>
    <linearGradient id="未命名的渐变_163-2" x1="54.03" y1="237.23" x2="345.96" y2="237.23" xlink:href="#未命名的渐变_163"/>
    <linearGradient id="未命名的渐变_163-3" x1="217.01" y1="156.23" x2="269.76" y2="156.23" xlink:href="#未命名的渐变_163"/>
    <clipPath id="clip-path">
      <path class="cls-1" d="M-1155.7,465.7a126,126,0,0,0-125.9,126,126,126,0,0,0,125.9,126,126,126,0,0,0,126-126A126,126,0,0,0-1155.7,465.7Zm0-26.9a152.9,152.9,0,0,1,153,152.9,153,153,0,0,1-153,153,152.9,152.9,0,0,1-152.9-153A152.8,152.8,0,0,1-1155.7,438.8Z"/>
    </clipPath>
    <clipPath id="clip-path-2">
      <path class="cls-2" d="M-1062,689.1a13.5,13.5,0,0,1,19.1-1l53.5,48.1a13.6,13.6,0,0,1,1,19.1,13.6,13.6,0,0,1-19.1,1l-53.5-48.2A13.4,13.4,0,0,1-1062,689.1Z"/>
    </clipPath>
    <clipPath id="clip-path-3">
      <path class="cls-1" d="M-1137.7,528.7c-10.8,0-19.3,8.3-19.3,18.2s8.5,18.1,19.3,18.1,19.3-8.3,19.3-18.1S-1126.9,528.7-1137.7,528.7Zm0-27c25.6,0,46.3,20.2,46.3,45.2s-20.7,45.1-46.3,45.1-46.3-20.2-46.3-45.1S-1163.2,501.7-1137.7,501.7Z"/>
    </clipPath>
    <clipPath id="clip-path-4">
      <path class="cls-1" d="M-1137.7,571c47.2,0,85.5,37.4,85.5,83.7a13.4,13.4,0,0,1-13.5,13.5,13.5,13.5,0,0,1-13.5-13.5c0-31.2-26.1-56.7-58.5-56.7s-58.5,25.5-58.5,56.7a13.4,13.4,0,0,1-13.5,13.5,13.5,13.5,0,0,1-13.5-13.5C-1223.2,608.4-1184.8,571-1137.7,571Z"/>
    </clipPath>
    <clipPath id="clip-path-5">
      <path class="cls-1" d="M-1191.7,497.2a13.5,13.5,0,0,1,13.5,13.5,13.5,13.5,0,0,1-12.2,13.5h-1.3c-9.7,0-18,9-18,20.5s7.6,19.6,16.8,20.3h1.2a13.4,13.4,0,0,1,13.5,13.5,13.5,13.5,0,0,1-13.5,13.5c-25,0-45-21.5-45-47.4S-1216.7,497.2-1191.7,497.2Z"/>
    </clipPath>
    <clipPath id="clip-path-6">
      <path class="cls-1" d="M-1191.7,565.1a13.4,13.4,0,0,1,13.5,13.5,13.5,13.5,0,0,1-13.5,13.5c-22.1,0-40.5,19.7-40.5,44.6a13.4,13.4,0,0,1-13.5,13.5,13.4,13.4,0,0,1-13.4-13.5C-1259.1,597.4-1229.2,565.1-1191.7,565.1Z"/>
    </clipPath>
  </defs>
  <title>缺省页插画</title>
  <g>
    <g>
      <rect class="cls-3" x="55" y="103.8" width="289.9" height="204.55" rx="10.9"/>
      <path class="cls-4" d="M55,272.6c25.4-32.5,63.8-75.9,88.3-75.9,36.2,0,66.5,67.6,86.3,67.6,16.9,0,34.5-32,59.2-32,17.1,0,37.5,28,56.2,45.5"/>
      <circle class="cls-5" cx="243.4" cy="156.2" r="25.4"/>
    </g>
    <rect class="cls-1" width="400" height="400"/>
  </g>
</svg>
